<svg t="1563937372492" class="icon" viewBox="0 0 1024 1024" version="1.1" xmlns="http://www.w3.org/2000/svg" p-id="7973" width="200" height="200"><path d="M172.261295 749.10577532c32.37704801 8.499637 108.515027 8.400704 219.866331 11.332716-5.258435 24.30652-6.473611 46.213667-6.473611 85.120688 0 92.93219199 67.688907 174.792491 127.606083 174.792491 42.268342 0 77.151491-34.581354 77.679134-77.102924 0.582605-52.159036 16.700677-142.261147 103.610552-187.946172 6.378675-3.365118 24.61631-12.342032 27.270511-13.534823l-1.366074-1.161213c13.612771 11.73704199 32.453996 20.719352 51.805276 20.719352L849.969409 761.32589032c42.849748 0 77.706515-34.859765 77.706515-77.709113l1e-8-414.432015c0-42.848948-34.856767-77.709113-77.70651501-77.709113l-77.709513 0c-30.835494 0-56.608419 18.620375-69.104947 44.725476-0.305793-0.100932-0.862415-0.255827-1.216175-0.30479299-1.715837-0.454692-3.71947801-0.960349-6.195799-1.61590401-0.45669-0.105928-0.710518-0.159892-1.193191-0.31078899-14.92388199-3.692496-43.632217-10.570833-105.021595-24.68506401-13.185061-2.983977-82.65975701-17.808926-154.695716-17.808926l-141.608589 0c-43.154541 0-74.267447 16.589752-92.782893 49.932146-0.253828 0.50565699-6.221782 12.147764-11.080487 27.881097-3.64253 11.827981-5.007605 28.575626-0.607588 45.576899-27.822936 19.127032-36.778064 48.011248-42.596919 66.818497-9.765379 30.862076-6.82937 54.031167-0.053963 70.624916-15.630403 14.77498301-28.98235 37.282722-34.60154 71.63723-3.487635 21.295562 0.253828 43.202509 10.071172 61.447139-14.673851 16.466236-21.352323 37.185188-22.108011 56.35659l-0.308791 5.414329c-0.20186301 3.413686-0.354759 5.517259-0.354759 12.97420301C98.80010199 692.87190232 121.466734 734.58362132 172.261295 749.10577532zM746.359057 269.18476232c0-14.316294 11.584146-25.89944 25.90044-25.89944L849.969409 243.28532232c14.317693 0 25.902438 11.583147 25.902438 25.89944L875.871847 683.61617732c0 14.318292-11.58454599 25.90044-25.902438 25.90044l-77.707714 0c-14.318292 0-25.90243799-11.582147-25.902438-25.90044l0-414.431416L746.359057 269.18476232zM151.214565 643.84973932c0.504658-12.79832301 5.868021-37.936679 51.19409-37.936679 38.860652 0 51.807674 0 51.807674 0 7.185128 0 12.953218-5.79607001 12.953218-12.957215 0-7.157747-5.76808901-12.946622-12.953218-12.946622 0 0-11.330318 0-50.183775 0-38.85545599 0-43.963992-32.230148-41.432709-47.760418 3.182842-19.329894 12.242699-55.85493 55.998833-55.85493 43.712163 0 61.522088 0 61.522088 0 7.186128 0 12.94922-5.768089 12.94922-12.951219 0-7.13516201-5.762893-12.948221-12.94922-12.948221 0 0-30.761144 0-50.997224 0-43.709365 0-39.862973-33.344193-33.589227-53.223714 8.24441-26.143275 13.302981-50.377644 68.399425-50.377644 18.614379 0 42.238163 0 42.238163 0 7.184129 0 12.948221-5.76709 12.94822101-12.951219 0-7.13516201-5.764092-12.952218-12.94822101-12.952218 0 0-17.959823 0-40.617461 0-28.336788 0-29.653895-26.811822-26.715687-36.421106 3.237805-10.526863 7.0792-18.316581 7.232896-18.670342 7.840684-14.117428 20.438143-22.612669 47.151831-22.612669l141.608589 0c71.124578 0 141.665551 16.133062 143.486316 16.54378301 107.606843 24.783197 113.27100201 26.709891 120.027421 28.63158799 0 0 21.908146 3.691497 21.908146 22.812533l0.199864 357.748447c0 12.142168-7.73975199 23.117726-20.565057 26.992099-1.59291999 0.628974-3.769444 1.287527-5.33938 1.944682-118.33337 48.998179-154.353348 156.450527-155.41962501 244.680906-0.145901 12.395996-9.710416 25.903437-25.87005999 25.903437-27.384433 0-75.805404-54.968531-75.805404-122.98321699 0-61.41576 2.480318-72.041556 23.98274-136.04236302-259.02877801 0-257.207014-3.714482-280.070512-9.71141599-28.335588-8.094512-30.762143-31.571994-30.762143-39.665907C150.608975 651.26071432 150.862803 652.55383732 151.214565 643.84973932zM811.116951 346.89287632c21.447459 0 38.852458-17.4042 38.852458-38.854657s-17.405199-38.853457-38.852458-38.853457c-21.454854 0-38.855656 17.40320101-38.855656 38.853457S789.664495 346.89287632 811.116951 346.89287632zM811.116951 295.08320332c7.13056501 0 12.94722199 5.820054 12.947222 12.955216 0 7.13416301-5.81805499 12.951219-12.947222 12.951219-7.137161 0-12.952618-5.817056-12.952618-12.951219C798.164333 300.90325732 803.97979 295.08320332 811.116951 295.08320332z" p-id="7974"></path></svg>