<svg class="icon" viewBox="0 0 1024 1024" version="1.1" xmlns="http://www.w3.org/2000/svg" >
<path d="M827.392 28.672h-630.784c-106.496 0-192.512 86.016-192.512 196.608v389.12c0 106.496 86.016 196.608 192.512 196.608h94.208l-16.384 147.456c-4.096 20.48 8.192 40.96 24.576 49.152 8.192 4.096 16.384 8.192 28.672 8.192 8.192 0 20.48-4.096 28.672-8.192l290.816-196.608h184.32c106.496 0 192.512-86.016 192.512-196.608v-385.024c0-114.688-86.016-200.704-196.608-200.704z m118.784 589.824c0 53.248-45.056 98.304-98.304 98.304h-212.992c-12.288 0-20.48 4.096-28.672 8.192l-221.184 151.552 12.288-98.304c0-16.384-4.096-28.672-12.288-40.96-8.192-12.288-24.576-16.384-40.96-16.384h-159.744c-53.248 0-98.304-45.056-98.304-98.304v-409.6c0-53.248 45.056-98.304 98.304-98.304h663.552c53.248 0 98.304 45.056 98.304 98.304v405.504z"></path>
<path d="M278.528 397.312m-61.44 0a61.44 61.44 0 1 0 122.88 0 61.44 61.44 0 1 0-122.88 0Z"></path>
<path d="M749.568 397.312m-61.44 0a61.44 61.44 0 1 0 122.88 0 61.44 61.44 0 1 0-122.88 0Z"></path>
<path d="M516.096 397.312m-61.44 0a61.44 61.44 0 1 0 122.88 0 61.44 61.44 0 1 0-122.88 0Z"></path>
</svg>